<svg width="39" height="39" viewBox="0 0 39 39" fill="none" xmlns="http://www.w3.org/2000/svg">
<path d="M19.5 9.73187C14.1138 9.73187 9.73186 14.1146 9.73186 19.5009C9.73186 24.8871 14.1138 29.2699 19.5 29.2699C24.8854 29.2699 29.2681 24.888 29.2681 19.5009C29.2681 14.1138 24.8854 9.73187 19.5 9.73187Z" fill="#FFD600"/>
<path d="M19.5 6.86041C18.4473 6.86041 17.594 6.00717 17.594 4.95531V1.90596C17.594 0.853233 18.4473 0 19.5 0C20.5527 0 21.406 0.853233 21.406 1.90596V4.95531C21.406 6.00717 20.5519 6.86041 19.5 6.86041Z" fill="#FFD600"/>
<path d="M19.5 32.1387C18.4473 32.1387 17.594 32.992 17.594 34.0447V37.0932C17.594 38.1468 18.4473 39 19.5 39C20.5527 39 21.406 38.1468 21.406 37.0932V34.0447C21.406 32.992 20.5519 32.1387 19.5 32.1387Z" fill="#FFD600"/>
<path d="M28.4365 10.5626C27.6929 9.81822 27.6929 8.61178 28.4365 7.86736L30.5929 5.71096C31.3365 4.9674 32.5438 4.9674 33.2882 5.71096C34.0326 6.45538 34.0326 7.66268 33.2882 8.40624L31.1318 10.5626C30.3882 11.3071 29.1818 11.3071 28.4365 10.5626Z" fill="#FFD600"/>
<path d="M10.5626 28.4382C9.81822 27.6929 8.61178 27.6929 7.86736 28.4382L5.71096 30.5938C4.9674 31.3373 4.96654 32.5455 5.71096 33.289C6.45538 34.0326 7.66269 34.0326 8.40624 33.289L10.5626 31.1318C11.3071 30.3882 11.3071 29.1809 10.5626 28.4382Z" fill="#FFD600"/>
<path d="M32.1387 19.5C32.1387 18.4473 32.992 17.594 34.0447 17.594H37.094C38.1468 17.594 39 18.4473 39 19.5C39 20.5527 38.1468 21.4051 37.094 21.4051H34.0447C32.992 21.4051 32.1387 20.5527 32.1387 19.5Z" fill="#FFD600"/>
<path d="M6.86041 19.5C6.86041 18.4473 6.00717 17.594 4.95445 17.594H1.90596C0.853233 17.594 0 18.4473 0 19.5C0 20.5527 0.853233 21.4051 1.90596 21.4051H4.95531C6.00717 21.4051 6.86041 20.5527 6.86041 19.5Z" fill="#FFD600"/>
<path d="M28.4365 28.4382C29.1809 27.6947 30.3882 27.6947 31.1318 28.4382L33.2882 30.5946C34.0326 31.3373 34.0326 32.5455 33.2882 33.289C32.5438 34.0326 31.3373 34.0326 30.5929 33.289L28.4365 31.1326C27.6921 30.3882 27.6921 29.1818 28.4365 28.4382Z" fill="#FFD600"/>
<path d="M10.5626 10.5626C11.3071 9.81822 11.3071 8.61177 10.5626 7.86735L8.40624 5.71182C7.66182 4.9674 6.45538 4.9674 5.71096 5.71182C4.96654 6.45537 4.96654 7.66268 5.71096 8.40624L7.86736 10.5626C8.61178 11.3079 9.81822 11.3079 10.5626 10.5626Z" fill="#FFD600"/>
</svg>
