<svg width="38" height="39" viewBox="0 0 38 39" fill="none" xmlns="http://www.w3.org/2000/svg">
<path d="M6.03497 25.3212C5.75955 25.1844 5.42556 25.2966 5.28872 25.572L2.73629 30.7061C2.59945 30.9813 2.71165 31.3153 2.98707 31.4521C3.26423 31.5901 3.59734 31.4747 3.73332 31.2016L6.28545 26.0675C6.4223 25.792 6.3101 25.4581 6.03497 25.3212Z" fill="#009FFF"/>
<path d="M9.72038 25.3212C9.44496 25.1844 9.11097 25.2966 8.97413 25.572L6.4217 30.7061C6.23645 31.079 6.51158 31.5107 6.91978 31.5107C7.12446 31.5107 7.32132 31.3973 7.41873 31.2016L9.97087 26.0675C10.108 25.792 9.99551 25.4581 9.72038 25.3212Z" fill="#009FFF"/>
<path d="M29.888 25.3212C29.6126 25.1844 29.2786 25.2966 29.1417 25.572L26.5893 30.7061C26.4525 30.9813 26.5647 31.3153 26.8401 31.4521C26.9198 31.4918 27.0042 31.5107 27.0874 31.5107C27.2921 31.5107 27.4889 31.3973 27.5863 31.2016L30.1388 26.0675C30.2753 25.792 30.1634 25.4581 29.888 25.3212Z" fill="#009FFF"/>
<path d="M33.5734 25.3212C33.298 25.1844 32.964 25.2966 32.8272 25.572L30.2751 30.7061C30.1382 30.9813 30.2504 31.3153 30.5255 31.4521C30.6053 31.4918 30.6896 31.5107 30.7728 31.5107C30.9775 31.5107 31.1747 31.3973 31.2718 31.2016L33.8242 26.0675C33.9611 25.792 33.8489 25.4581 33.5734 25.3212Z" fill="#009FFF"/>
<path d="M32.28 8.98559C31.781 5.79144 29.0119 3.33984 25.6797 3.33984C24.4261 3.33984 23.2216 3.68667 22.1768 4.33356C20.5873 1.66228 17.7258 0 14.5469 0C9.63604 0 5.64062 3.99542 5.64062 8.90625C5.64062 8.93668 5.64062 8.96822 5.64174 8.99865C2.48559 9.53028 0 12.2819 0 15.5859C0 19.2693 3.0705 22.2656 6.75391 22.2656H31.2461C34.9295 22.2656 38 19.2693 38 15.5859C38 12.2537 35.4742 9.48464 32.28 8.98559Z" fill="#009FFF"/>
<path d="M23 22.6906H17.5672L20.2759 14L12 27.3094H17.4328L14.7241 36L23 22.6906Z" fill="#FFD83B"/>
</svg>
